<svg width="311" height="259" viewBox="0 0 311 259" fill="none" xmlns="http://www.w3.org/2000/svg">
<path d="M123.351 9.3299C131.863 -2.3452 148.971 -3.20602 158.612 7.5557L304.78 170.71C317.882 185.334 307.502 208.57 287.867 208.57L22.7472 208.569C4.17675 208.569 -6.54087 187.491 4.39943 172.485L123.351 9.3299ZM155.229 10.5865C147.516 1.97708 133.83 2.6657 127.021 12.006L8.06818 175.161C-0.683548 187.165 7.89129 204.028 22.7476 204.028L287.867 204.029C303.575 204.029 311.879 185.441 301.398 173.741L155.229 10.5865Z" fill="#616161"/>
<path d="M39.3819 99.7183C39.3819 91.7129 41.5648 84.9286 45.9307 79.3654C50.433 73.6666 56.2996 69.3925 63.5305 66.5431C70.8979 63.558 78.9475 62.0654 87.6792 62.0654C96.5474 62.0654 104.597 63.558 111.828 66.5431C119.195 69.3925 125.062 73.6666 129.428 79.3654C133.93 84.9286 136.181 91.7129 136.181 99.7183C136.181 106.231 134.749 111.93 131.884 116.815C129.155 121.564 125.403 125.567 120.628 128.823C115.989 131.944 110.805 134.25 105.074 135.743C99.3443 137.236 93.5459 137.982 87.6792 137.982C81.8126 137.982 76.0142 137.236 70.284 135.743C64.5538 134.25 59.3693 131.944 54.7306 128.823C50.0919 125.567 46.34 121.564 43.4749 116.815C40.7462 111.93 39.3819 106.231 39.3819 99.7183ZM71.9212 102.975C71.9212 106.231 72.6034 109.081 73.9677 111.523C75.332 113.965 77.1739 115.865 79.4933 117.222C81.9491 118.579 84.6777 119.257 87.6792 119.257C90.8172 119.257 93.5459 118.579 95.8652 117.222C98.3211 115.865 100.231 113.965 101.595 111.523C102.96 109.081 103.642 106.231 103.642 102.975C103.642 99.854 102.96 97.0725 101.595 94.6301C100.368 92.0521 98.5257 90.0846 96.0699 88.7278C93.7505 87.3709 90.9536 86.6925 87.6792 86.6925C84.6777 86.6925 81.9491 87.3709 79.4933 88.7278C77.0375 90.0846 75.1274 92.0521 73.7631 94.6301C72.5352 97.0725 71.9212 99.854 71.9212 102.975ZM34.2656 169.122C34.2656 161.659 35.9028 155.282 39.1772 149.99C42.4516 144.563 46.7492 140.221 52.0701 136.964C57.391 133.572 63.1895 131.13 69.4654 129.637C75.7413 128.009 81.8126 127.195 87.6792 127.195C93.5459 127.195 99.6171 128.009 105.893 129.637C112.169 131.13 117.967 133.572 123.288 136.964C128.746 140.221 133.111 144.563 136.386 149.99C139.66 155.282 141.297 161.659 141.297 169.122C141.297 175.635 139.865 181.469 137 186.625C134.135 191.781 130.178 196.191 125.13 199.855C120.082 203.518 114.352 206.3 107.94 208.199C101.527 210.099 94.7738 211.049 87.6792 211.049C80.7211 211.049 74.0359 210.099 67.6235 208.199C61.2112 206.3 55.481 203.518 50.433 199.855C45.3849 196.191 41.4284 191.781 38.5633 186.625C35.6982 181.469 34.2656 175.635 34.2656 169.122ZM68.6468 163.83C68.6468 168.036 69.4654 171.564 71.1026 174.414C72.8762 177.263 75.1956 179.434 78.0607 180.927C81.0622 182.419 84.2684 183.165 87.6792 183.165C91.2265 183.165 94.4327 182.419 97.2978 180.927C100.299 179.434 102.619 177.263 104.256 174.414C106.029 171.564 106.916 168.036 106.916 163.83C106.916 160.438 106.029 157.317 104.256 154.468C102.619 151.618 100.299 149.38 97.2978 147.751C94.4327 146.123 91.2265 145.309 87.6792 145.309C84.2684 145.309 81.0622 146.123 78.0607 147.751C75.1956 149.38 72.8762 151.618 71.1026 154.468C69.4654 157.317 68.6468 160.438 68.6468 163.83Z" fill="white"/>
<path d="M211.115 107.131C211.115 102.977 210.19 99.3996 208.339 96.3995C206.604 93.284 204.175 90.9186 201.052 89.3031C198.044 87.5723 194.632 86.7069 190.815 86.7069C186.882 86.7069 183.354 87.5723 180.231 89.3031C177.223 90.9186 174.794 93.284 172.944 96.3995C171.208 99.3996 170.341 102.977 170.341 107.131C170.341 111.169 171.208 114.746 172.944 117.862C174.794 120.977 177.223 123.4 180.231 125.131C183.354 126.862 186.882 127.727 190.815 127.727C194.632 127.727 198.044 126.862 201.052 125.131C204.175 123.4 206.604 120.977 208.339 117.862C210.19 114.746 211.115 111.169 211.115 107.131ZM190.988 185.19H153.858L193.244 141.401L199.143 138.804C195.904 141.92 192.781 143.997 189.774 145.035C186.882 145.958 183.238 146.42 178.843 146.42C174.332 146.42 169.82 145.555 165.309 143.824C160.914 141.978 156.923 139.381 153.337 136.035C149.751 132.573 146.86 128.42 144.662 123.573C142.464 118.727 141.365 113.246 141.365 107.131C141.365 97.0918 143.563 88.7262 147.959 82.0337C152.47 75.3412 158.427 70.3219 165.83 66.9756C173.348 63.514 181.677 61.7832 190.815 61.7832C199.837 61.7832 208.05 63.514 215.453 66.9756C222.972 70.3219 228.929 75.3412 233.324 82.0337C237.835 88.7262 240.091 97.0918 240.091 107.131C240.091 113.592 238.703 119.592 235.927 125.131C233.266 130.67 229.97 135.862 226.037 140.708L190.988 185.19Z" fill="white"/>
<path d="M232.247 186.425L247.508 151.032L250.47 155.773H230.626L235.154 150.637V161.87H225.707V146.911H258.129V153.911L244.321 186.425H232.247Z" fill="white"/>
<path d="M214.791 179.361C214.791 177.395 215.441 175.727 216.742 174.356C218.087 172.939 219.813 172.23 221.921 172.23C224.028 172.23 225.732 172.939 227.032 174.356C228.333 175.727 228.983 177.395 228.983 179.361C228.983 181.28 228.333 182.949 227.032 184.365C225.732 185.737 224.028 186.422 221.921 186.422C219.813 186.422 218.087 185.737 216.742 184.365C215.441 182.949 214.791 181.28 214.791 179.361Z" fill="white"/>
<path d="M65.0838 230.009C68.3462 230.009 70.8852 230.983 72.7006 232.93C74.5423 234.851 75.4631 237.64 75.4631 241.297V258.188H67.649V241.534C67.649 239.876 67.2149 238.626 66.3467 237.784C65.4784 236.916 64.3208 236.482 62.8737 236.482C61.3214 236.482 60.0848 236.942 59.164 237.863C58.2694 238.758 57.8222 240.113 57.8222 241.928V258.188H50.008V241.534C50.008 239.876 49.6002 238.626 48.7846 237.784C47.9953 236.916 46.9034 236.482 45.509 236.482C44.0093 236.482 42.8122 236.942 41.9177 237.863C41.0231 238.758 40.5758 240.113 40.5758 241.928V258.188H32.7617V230.562H40.3391V233.64C41.181 232.456 42.2597 231.562 43.5752 230.957C44.917 230.325 46.4693 230.009 48.2321 230.009C50.0475 230.009 51.6261 230.338 52.9679 230.996C54.3361 231.654 55.4411 232.614 56.283 233.877C57.2302 232.614 58.4668 231.654 59.9928 230.996C61.5187 230.338 63.2158 230.009 65.0838 230.009Z" fill="white"/>
<path d="M107.853 232.684V258.188H99.3362V255.647C97.6736 257.623 95.164 258.612 91.8074 258.612C89.486 258.612 87.3686 258.078 85.455 257.012C83.5728 255.914 82.0671 254.361 80.9378 252.353C79.8398 250.346 79.2908 248.024 79.2908 245.389C79.2908 242.754 79.8398 240.448 80.9378 238.472C82.0671 236.464 83.5728 234.927 85.455 233.86C87.3686 232.794 89.486 232.261 91.8074 232.261C94.8189 232.261 97.1873 233.139 98.9127 234.896V232.684H107.853ZM93.6896 251.506C95.2581 251.506 96.5443 250.973 97.5481 249.906C98.5519 248.808 99.0538 247.303 99.0538 245.389C99.0538 243.507 98.5519 242.032 97.5481 240.966C96.5443 239.899 95.2581 239.366 93.6896 239.366C92.1211 239.366 90.8349 239.899 89.8311 240.966C88.8273 242.032 88.3254 243.507 88.3254 245.389C88.3254 247.303 88.8273 248.808 89.8311 249.906C90.8349 250.973 92.1211 251.506 93.6896 251.506Z" fill="white"/>
<path d="M122.125 235.743C123.035 234.582 124.211 233.719 125.654 233.155C127.129 232.559 128.807 232.261 130.689 232.261V240.307C129.874 240.213 129.199 240.166 128.666 240.166C126.752 240.166 125.247 240.683 124.149 241.719C123.082 242.754 122.549 244.338 122.549 246.471V258.188H113.608V232.684H122.125V235.743Z" fill="white"/>
<path d="M161.111 232.684V258.188H152.594V255.647C150.932 257.623 148.422 258.612 145.066 258.612C142.744 258.612 140.627 258.078 138.713 257.012C136.831 255.914 135.325 254.361 134.196 252.353C133.098 250.346 132.549 248.024 132.549 245.389C132.549 242.754 133.098 240.448 134.196 238.472C135.325 236.464 136.831 234.927 138.713 233.86C140.627 232.794 142.744 232.261 145.066 232.261C148.077 232.261 150.446 233.139 152.171 234.896V232.684H161.111ZM146.948 251.506C148.516 251.506 149.803 250.973 150.806 249.906C151.81 248.808 152.312 247.303 152.312 245.389C152.312 243.507 151.81 242.032 150.806 240.966C149.803 239.899 148.516 239.366 146.948 239.366C145.379 239.366 144.093 239.899 143.089 240.966C142.086 242.032 141.584 243.507 141.584 245.389C141.584 247.303 142.086 248.808 143.089 249.906C144.093 250.973 145.379 251.506 146.948 251.506Z" fill="white"/>
<path d="M193.735 232.684L183.195 258.188H173.972L163.479 232.684H172.654L178.772 248.259L185.218 232.684H193.735Z" fill="white"/>
<path d="M196.046 232.684H204.987V258.188H196.046V232.684ZM200.516 229.861C198.885 229.861 197.568 229.406 196.564 228.496C195.56 227.586 195.058 226.457 195.058 225.108C195.058 223.759 195.56 222.63 196.564 221.72C197.568 220.81 198.885 220.355 200.516 220.355C202.148 220.355 203.465 220.795 204.469 221.673C205.473 222.52 205.975 223.618 205.975 224.967C205.975 226.379 205.473 227.555 204.469 228.496C203.465 229.406 202.148 229.861 200.516 229.861Z" fill="white"/>
<path d="M220.725 258.612C217.588 258.612 215.141 257.812 213.385 256.212C211.659 254.581 210.797 252.259 210.797 249.248V223.273H219.737V248.777C219.737 249.718 219.972 250.44 220.443 250.942C220.945 251.444 221.635 251.694 222.513 251.694C223.235 251.694 223.909 251.538 224.537 251.224L224.913 257.953C223.564 258.392 222.168 258.612 220.725 258.612Z" fill="white"/>
<path d="M244.731 232.261C247.899 232.261 250.44 233.202 252.354 235.084C254.299 236.966 255.271 239.805 255.271 243.601V258.188H246.331V245.06C246.331 241.578 244.935 239.836 242.143 239.836C240.606 239.836 239.367 240.338 238.426 241.342C237.516 242.346 237.061 243.852 237.061 245.86V258.188H228.121V223.273H237.061V235.037C238.033 234.127 239.178 233.437 240.496 232.966C241.814 232.496 243.225 232.261 244.731 232.261Z" fill="white"/>
<path d="M288.214 232.684V258.188H279.697V255.647C278.035 257.623 275.525 258.612 272.169 258.612C269.847 258.612 267.73 258.078 265.816 257.012C263.934 255.914 262.428 254.361 261.299 252.353C260.201 250.346 259.652 248.024 259.652 245.389C259.652 242.754 260.201 240.448 261.299 238.472C262.428 236.464 263.934 234.927 265.816 233.86C267.73 232.794 269.847 232.261 272.169 232.261C275.18 232.261 277.549 233.139 279.274 234.896V232.684H288.214ZM274.051 251.506C275.619 251.506 276.905 250.973 277.909 249.906C278.913 248.808 279.415 247.303 279.415 245.389C279.415 243.507 278.913 242.032 277.909 240.966C276.905 239.899 275.619 239.366 274.051 239.366C272.482 239.366 271.196 239.899 270.192 240.966C269.188 242.032 268.687 243.507 268.687 245.389C268.687 247.303 269.188 248.808 270.192 249.906C271.196 250.973 272.482 251.506 274.051 251.506Z" fill="white"/>
<path d="M258.474 174.85V178.108H265.023V181.345H258.474V186.422H254.277V171.613H265.914V174.85H258.474Z" fill="white"/>
<path d="M281.272 186.422L281.229 178.573L277.414 184.962H275.549L271.755 178.785V186.422H267.876V171.613H271.331L276.545 180.16L281.632 171.613H285.087L285.129 186.422H281.272Z" fill="white"/>
</svg>
