<svg width="241" height="201" viewBox="0 0 241 201" fill="none" xmlns="http://www.w3.org/2000/svg">
<path d="M95.6863 7.23745C102.29 -1.81923 115.56 -2.48699 123.039 5.86115L236.426 132.424C246.589 143.769 238.537 161.793 223.306 161.793L17.6456 161.793C3.24001 161.792 -5.07392 145.441 3.41275 133.801L95.6863 7.23745ZM120.415 8.21225C114.432 1.53367 103.816 2.06785 98.5331 9.31339L6.25869 135.877C-0.530246 145.189 6.12148 158.27 17.6459 158.27L223.306 158.27C235.491 158.27 241.932 143.851 233.802 134.776L120.415 8.21225Z" fill="#616161"/>
<path d="M30.5489 77.3538C30.5489 71.1438 32.2423 65.881 35.629 61.5656C39.1215 57.1448 43.6724 53.8293 49.2816 51.6189C54.9967 49.3033 61.241 48.1455 68.0144 48.1455C74.8937 48.1455 81.1379 49.3033 86.7472 51.6189C92.4622 53.8293 97.0131 57.1448 100.4 61.5656C103.892 65.881 105.639 71.1438 105.639 77.3538C105.639 82.4061 104.527 86.8268 102.305 90.616C100.188 94.2999 97.2777 97.405 93.5735 99.9311C89.9751 102.352 85.9534 104.141 81.5083 105.299C77.0633 106.457 72.5653 107.036 68.0144 107.036C63.4635 107.036 58.9655 106.457 54.5205 105.299C50.0754 104.141 46.0537 102.352 42.4553 99.9311C38.8569 97.405 35.9465 94.2999 33.7239 90.616C31.6072 86.8268 30.5489 82.4061 30.5489 77.3538ZM55.7905 79.88C55.7905 82.4061 56.3196 84.6165 57.378 86.5111C58.4363 88.4057 59.8651 89.8792 61.6643 90.9318C63.5693 91.9843 65.686 92.5106 68.0144 92.5106C70.4486 92.5106 72.5653 91.9843 74.3645 90.9318C76.2695 89.8792 77.7512 88.4057 78.8095 86.5111C79.8679 84.6165 80.3971 82.4061 80.3971 79.88C80.3971 77.4591 79.8679 75.3014 78.8095 73.4068C77.857 71.4069 76.4283 69.8807 74.5232 68.8282C72.724 67.7756 70.5544 67.2493 68.0144 67.2493C65.686 67.2493 63.5693 67.7756 61.6643 68.8282C59.7593 69.8807 58.2776 71.4069 57.2192 73.4068C56.2667 75.3014 55.7905 77.4591 55.7905 79.88ZM26.5801 131.192C26.5801 125.403 27.8501 120.456 30.3901 116.351C32.9302 112.141 36.2639 108.773 40.3915 106.246C44.5191 103.615 49.0171 101.72 53.8855 100.563C58.7539 99.2996 63.4635 98.668 68.0144 98.668C72.5653 98.668 77.2749 99.2996 82.1433 100.563C87.0117 101.72 91.5097 103.615 95.6372 106.246C99.8706 108.773 103.257 112.141 105.797 116.351C108.337 120.456 109.607 125.403 109.607 131.192C109.607 136.244 108.496 140.77 106.274 144.77C104.051 148.77 100.982 152.19 97.066 155.032C93.1502 157.874 88.7051 160.032 83.7309 161.505C78.7566 162.979 73.5178 163.716 68.0144 163.716C62.6168 163.716 57.4309 162.979 52.4567 161.505C47.4824 160.032 43.0374 157.874 39.1215 155.032C35.2056 152.19 32.1364 148.77 29.9139 144.77C27.6913 140.77 26.5801 136.244 26.5801 131.192ZM53.2504 127.087C53.2504 130.35 53.8855 133.087 55.1555 135.297C56.5313 137.507 58.3305 139.191 60.553 140.349C62.8814 141.507 65.3685 142.086 68.0144 142.086C70.7661 142.086 73.2532 141.507 75.4757 140.349C77.8041 139.191 79.6033 137.507 80.8733 135.297C82.2492 133.087 82.9371 130.35 82.9371 127.087C82.9371 124.456 82.2492 122.035 80.8733 119.824C79.6033 117.614 77.8041 115.877 75.4757 114.614C73.2532 113.351 70.7661 112.72 68.0144 112.72C65.3685 112.72 62.8814 113.351 60.553 114.614C58.3305 115.877 56.5313 117.614 55.1555 119.824C53.8855 122.035 53.2504 124.456 53.2504 127.087Z" fill="white"/>
<path d="M163.767 83.1038C163.767 79.8815 163.049 77.1067 161.613 74.7795C160.268 72.3627 158.383 70.5278 155.96 69.2747C153.628 67.932 150.981 67.2607 148.019 67.2607C144.969 67.2607 142.232 67.932 139.809 69.2747C137.476 70.5278 135.592 72.3627 134.156 74.7795C132.81 77.1067 132.137 79.8815 132.137 83.1038C132.137 86.2367 132.81 89.0114 134.156 91.4282C135.592 93.8449 137.476 95.7246 139.809 97.0673C142.232 98.4099 144.969 99.0812 148.019 99.0812C150.981 99.0812 153.628 98.4099 155.96 97.0673C158.383 95.7246 160.268 93.8449 161.613 91.4282C163.049 89.0114 163.767 86.2367 163.767 83.1038ZM148.154 143.657H119.351L149.904 109.688L154.48 107.674C151.968 110.091 149.545 111.702 147.212 112.508C144.969 113.224 142.142 113.582 138.732 113.582C135.233 113.582 131.734 112.91 128.234 111.568C124.824 110.136 121.729 108.122 118.947 105.526C116.166 102.841 113.922 99.6183 112.217 95.8589C110.513 92.0995 109.66 87.8478 109.66 83.1038C109.66 75.3165 111.365 68.8271 114.775 63.6356C118.274 58.4441 122.895 54.5504 128.638 51.9547C134.47 49.2694 140.931 47.9268 148.019 47.9268C155.018 47.9268 161.389 49.2694 167.132 51.9547C172.964 54.5504 177.585 58.4441 180.995 63.6356C184.494 68.8271 186.244 75.3165 186.244 83.1038C186.244 88.1163 185.167 92.7708 183.014 97.0673C180.95 101.364 178.393 105.392 175.342 109.151L148.154 143.657Z" fill="white"/>
<path d="M180.159 144.615L191.997 117.159L194.295 120.838H178.902L182.414 116.853V125.567H175.086V113.963H200.236V119.393L189.526 144.615H180.159Z" fill="white"/>
<path d="M166.619 139.135C166.619 137.61 167.124 136.316 168.132 135.252C169.176 134.153 170.515 133.604 172.15 133.604C173.785 133.604 175.106 134.153 176.115 135.252C177.124 136.316 177.628 137.61 177.628 139.135C177.628 140.624 177.124 141.918 176.115 143.017C175.106 144.081 173.785 144.612 172.15 144.612C170.515 144.612 169.176 144.081 168.132 143.017C167.124 141.918 166.619 140.624 166.619 139.135Z" fill="white"/>
<path d="M50.4871 178.424C53.0179 178.424 54.9874 179.18 56.3957 180.69C57.8243 182.18 58.5387 184.343 58.5387 187.18V200.283H52.477V187.364C52.477 186.078 52.1403 185.109 51.4668 184.455C50.7933 183.782 49.8952 183.445 48.7727 183.445C47.5686 183.445 46.6093 183.802 45.895 184.517C45.2011 185.211 44.8541 186.262 44.8541 187.67V200.283H38.7925V187.364C38.7925 186.078 38.4761 185.109 37.8434 184.455C37.2312 183.782 36.3842 183.445 35.3025 183.445C34.1391 183.445 33.2105 183.802 32.5166 184.517C31.8226 185.211 31.4757 186.262 31.4757 187.67V200.283H25.4141V178.853H31.292V181.241C31.9451 180.323 32.7819 179.629 33.8024 179.159C34.8432 178.669 36.0474 178.424 37.4148 178.424C38.8231 178.424 40.0477 178.68 41.0885 179.19C42.1498 179.7 43.007 180.445 43.6601 181.425C44.3949 180.445 45.3541 179.7 46.5379 179.19C47.7216 178.68 49.038 178.424 50.4871 178.424Z" fill="white"/>
<path d="M83.6644 180.499V200.283H77.0576V198.312C75.7679 199.845 73.8211 200.612 71.2173 200.612C69.4166 200.612 67.774 200.198 66.2896 199.371C64.8295 198.519 63.6615 197.314 62.7855 195.757C61.9338 194.2 61.5079 192.399 61.5079 190.355C61.5079 188.311 61.9338 186.522 62.7855 184.989C63.6615 183.431 64.8295 182.239 66.2896 181.412C67.774 180.584 69.4166 180.171 71.2173 180.171C73.5534 180.171 75.3907 180.852 76.7291 182.215V180.499H83.6644ZM72.6774 195.1C73.8941 195.1 74.8918 194.686 75.6705 193.859C76.4492 193.007 76.8386 191.839 76.8386 190.355C76.8386 188.895 76.4492 187.751 75.6705 186.924C74.8918 186.096 73.8941 185.682 72.6774 185.682C71.4607 185.682 70.463 186.096 69.6843 186.924C68.9056 187.751 68.5162 188.895 68.5162 190.355C68.5162 191.839 68.9056 193.007 69.6843 193.859C70.463 194.686 71.4607 195.1 72.6774 195.1Z" fill="white"/>
<path d="M94.7357 182.872C95.4414 181.971 96.354 181.302 97.4734 180.864C98.6171 180.402 99.919 180.171 101.379 180.171V186.412C100.746 186.339 100.223 186.303 99.8095 186.303C98.3251 186.303 97.157 186.705 96.3053 187.508C95.4779 188.311 95.0643 189.54 95.0643 191.194V200.283H88.129V180.499H94.7357V182.872Z" fill="white"/>
<path d="M124.978 180.499V200.283H118.371V198.312C117.082 199.845 115.135 200.612 112.531 200.612C110.73 200.612 109.088 200.198 107.603 199.371C106.143 198.519 104.975 197.314 104.099 195.757C103.248 194.2 102.822 192.399 102.822 190.355C102.822 188.311 103.248 186.522 104.099 184.989C104.975 183.431 106.143 182.239 107.603 181.412C109.088 180.584 110.73 180.171 112.531 180.171C114.867 180.171 116.704 180.852 118.043 182.215V180.499H124.978ZM113.991 195.1C115.208 195.1 116.206 194.686 116.984 193.859C117.763 193.007 118.152 191.839 118.152 190.355C118.152 188.895 117.763 187.751 116.984 186.924C116.206 186.096 115.208 185.682 113.991 185.682C112.774 185.682 111.777 186.096 110.998 186.924C110.219 187.751 109.83 188.895 109.83 190.355C109.83 191.839 110.219 193.007 110.998 193.859C111.777 194.686 112.774 195.1 113.991 195.1Z" fill="white"/>
<path d="M150.285 180.499L142.109 200.283H134.954L126.815 180.499H133.932L138.678 192.581L143.678 180.499H150.285Z" fill="white"/>
<path d="M152.078 180.499H159.013V200.283H152.078V180.499ZM155.546 178.309C154.28 178.309 153.258 177.956 152.48 177.25C151.701 176.545 151.311 175.669 151.311 174.622C151.311 173.576 151.701 172.7 152.48 171.994C153.258 171.288 154.28 170.936 155.546 170.936C156.811 170.936 157.833 171.276 158.612 171.958C159.391 172.615 159.78 173.466 159.78 174.513C159.78 175.608 159.391 176.52 158.612 177.25C157.833 177.956 156.811 178.309 155.546 178.309Z" fill="white"/>
<path d="M171.222 200.612C168.789 200.612 166.891 199.991 165.528 198.75C164.19 197.485 163.52 195.684 163.52 193.348V173.199H170.456V192.983C170.456 193.713 170.638 194.273 171.003 194.662C171.393 195.051 171.928 195.246 172.609 195.246C173.169 195.246 173.692 195.124 174.179 194.881L174.471 200.101C173.424 200.442 172.342 200.612 171.222 200.612Z" fill="white"/>
<path d="M189.844 180.171C192.302 180.171 194.273 180.901 195.757 182.361C197.266 183.821 198.02 186.023 198.02 188.968V200.283H191.085V190.099C191.085 187.398 190.002 186.047 187.836 186.047C186.644 186.047 185.683 186.437 184.953 187.216C184.247 187.994 183.894 189.162 183.894 190.72V200.283H176.959V173.199H183.894V182.324C184.649 181.619 185.537 181.083 186.559 180.718C187.581 180.353 188.676 180.171 189.844 180.171Z" fill="white"/>
<path d="M223.575 180.499V200.283H216.968V198.312C215.679 199.845 213.732 200.612 211.128 200.612C209.327 200.612 207.685 200.198 206.2 199.371C204.74 198.519 203.572 197.314 202.696 195.757C201.845 194.2 201.419 192.399 201.419 190.355C201.419 188.311 201.845 186.522 202.696 184.989C203.572 183.431 204.74 182.239 206.2 181.412C207.685 180.584 209.327 180.171 211.128 180.171C213.464 180.171 215.301 180.852 216.64 182.215V180.499H223.575ZM212.588 195.1C213.805 195.1 214.803 194.686 215.581 193.859C216.36 193.007 216.749 191.839 216.749 190.355C216.749 188.895 216.36 187.751 215.581 186.924C214.803 186.096 213.805 185.682 212.588 185.682C211.372 185.682 210.374 186.096 209.595 186.924C208.816 187.751 208.427 188.895 208.427 190.355C208.427 191.839 208.816 193.007 209.595 193.859C210.374 194.686 211.372 195.1 212.588 195.1Z" fill="white"/>
<path d="M200.505 135.636V138.163H205.586V140.674H200.505V144.613H197.25V133.125H206.276V135.636H200.505Z" fill="white"/>
<path d="M218.19 144.613L218.157 138.524L215.198 143.48H213.751L210.808 138.688V144.613H207.799V133.125H210.479L214.524 139.755L218.47 133.125H221.15L221.183 144.613H218.19Z" fill="white"/>
</svg>
